<mxfile host="app.diagrams.net" modified="2022-09-14T13:56:54.943Z" agent="5.0 (X11)" etag="AL9eEFq2szDHLoEAcIhR" version="20.3.0" type="github">
  <diagram id="dfHTsbwiNK_aHqwab_OH" name="PÃ¡gina-1">
    <mxGraphModel dx="1137" dy="583" grid="1" gridSize="10" guides="1" tooltips="1" connect="1" arrows="1" fold="1" page="1" pageScale="1" pageWidth="827" pageHeight="1169" math="0" shadow="0">
      <root>
        <mxCell id="0" />
        <mxCell id="1" parent="0" />
        <mxCell id="GeFRvRv4xOy4_e1oaPGj-14" value="" style="edgeStyle=orthogonalEdgeStyle;rounded=0;orthogonalLoop=1;jettySize=auto;html=1;" edge="1" parent="1" source="GeFRvRv4xOy4_e1oaPGj-1" target="GeFRvRv4xOy4_e1oaPGj-11">
          <mxGeometry relative="1" as="geometry" />
        </mxCell>
        <mxCell id="GeFRvRv4xOy4_e1oaPGj-1" value="JUGADOR" style="rounded=1;whiteSpace=wrap;html=1;fillColor=#dae8fc;strokeColor=#6c8ebf;" vertex="1" parent="1">
          <mxGeometry x="840" y="247" width="120" height="60" as="geometry" />
        </mxCell>
        <mxCell id="GeFRvRv4xOy4_e1oaPGj-15" value="" style="edgeStyle=orthogonalEdgeStyle;rounded=0;orthogonalLoop=1;jettySize=auto;html=1;" edge="1" parent="1" source="GeFRvRv4xOy4_e1oaPGj-2" target="GeFRvRv4xOy4_e1oaPGj-11">
          <mxGeometry relative="1" as="geometry" />
        </mxCell>
        <mxCell id="GeFRvRv4xOy4_e1oaPGj-2" value="ARMAS" style="rounded=1;whiteSpace=wrap;html=1;fillColor=#f8cecc;strokeColor=#b85450;" vertex="1" parent="1">
          <mxGeometry x="414" y="310" width="120" height="60" as="geometry" />
        </mxCell>
        <mxCell id="GeFRvRv4xOy4_e1oaPGj-3" value="contrasena" style="ellipse;whiteSpace=wrap;html=1;" vertex="1" parent="1">
          <mxGeometry x="960" y="397" width="120" height="80" as="geometry" />
        </mxCell>
        <mxCell id="GeFRvRv4xOy4_e1oaPGj-4" value="email" style="ellipse;whiteSpace=wrap;html=1;" vertex="1" parent="1">
          <mxGeometry x="970" y="157" width="120" height="80" as="geometry" />
        </mxCell>
        <mxCell id="GeFRvRv4xOy4_e1oaPGj-5" value="nombre" style="ellipse;whiteSpace=wrap;html=1;" vertex="1" parent="1">
          <mxGeometry x="840" y="157" width="120" height="80" as="geometry" />
        </mxCell>
        <mxCell id="GeFRvRv4xOy4_e1oaPGj-6" value="apellido" style="ellipse;whiteSpace=wrap;html=1;" vertex="1" parent="1">
          <mxGeometry x="980" y="237" width="120" height="80" as="geometry" />
        </mxCell>
        <mxCell id="GeFRvRv4xOy4_e1oaPGj-7" value="USUARIO" style="ellipse;whiteSpace=wrap;html=1;" vertex="1" parent="1">
          <mxGeometry x="840" y="317" width="120" height="80" as="geometry" />
        </mxCell>
        <mxCell id="GeFRvRv4xOy4_e1oaPGj-8" value="nombre" style="ellipse;whiteSpace=wrap;html=1;" vertex="1" parent="1">
          <mxGeometry x="414" y="210" width="120" height="80" as="geometry" />
        </mxCell>
        <mxCell id="GeFRvRv4xOy4_e1oaPGj-10" value="dano" style="ellipse;whiteSpace=wrap;html=1;" vertex="1" parent="1">
          <mxGeometry x="260" y="290" width="120" height="80" as="geometry" />
        </mxCell>
        <mxCell id="GeFRvRv4xOy4_e1oaPGj-11" value="compran" style="rhombus;whiteSpace=wrap;html=1;" vertex="1" parent="1">
          <mxGeometry x="580" y="237" width="80" height="80" as="geometry" />
        </mxCell>
        <mxCell id="GeFRvRv4xOy4_e1oaPGj-16" value="id_usuario" style="ellipse;whiteSpace=wrap;html=1;strokeColor=#FF0000;" vertex="1" parent="1">
          <mxGeometry x="980" y="317" width="120" height="80" as="geometry" />
        </mxCell>
        <mxCell id="GeFRvRv4xOy4_e1oaPGj-17" value="id_arma" style="ellipse;whiteSpace=wrap;html=1;fillColor=#f5f5f5;fontColor=#333333;strokeColor=#FF0000;" vertex="1" parent="1">
          <mxGeometry x="400" y="340" width="120" height="80" as="geometry" />
        </mxCell>
        <mxCell id="GeFRvRv4xOy4_e1oaPGj-18" value="precio" style="ellipse;whiteSpace=wrap;html=1;" vertex="1" parent="1">
          <mxGeometry x="580" y="350" width="120" height="80" as="geometry" />
        </mxCell>
        <mxCell id="GeFRvRv4xOy4_e1oaPGj-20" value="precio_actual" style="ellipse;whiteSpace=wrap;html=1;" vertex="1" parent="1">
          <mxGeometry x="260" y="167" width="120" height="80" as="geometry" />
        </mxCell>
      </root>
    </mxGraphModel>
  </diagram>
</mxfile>
